<svg xmlns="http://www.w3.org/2000/svg" width="60" height="67">
  <path fill="#008FD3" d="M29.282.217c-.708 0-1.35.246-1.88.783l-4.974 4.698-5.637-1.12c-1.76-.357-2.85.807-3.2 2.238l-1.1 6.376L6.51 16.1c-1.414.716-1.812 2.148-1.104 3.58l2.874 5.704-2.874 5.704c-.708 1.432.044 2.863 1.105 3.58l5.97 2.907 1.11 6.376c.36 1.44 1.79 2.6 3.21 2.24l6.635-1.12 4.974 4.7c1.06 1.08 2.807 1.08 3.87 0l4.972-4.7 6.743 1.12c1.413.36 2.85-.8 3.203-2.23l.996-6.373 6.08-2.91c1.41-.715 1.7-2.146.99-3.58l-3.87-5.702 2.876-5.704c.707-1.43.31-2.862-1.106-3.58l-5.97-2.91-1.105-6.376c-.355-1.43-1.79-2.594-3.207-2.236L36.24 5.7 31.27 1c-.53-.537-1.28-.783-1.988-.783zm-20.34 39.82l-8.18 16.83 12.713-1.79 6.41 11.41L26.298 52.9l-.663-.672-3.537-3.244-4.974.783c-3.184.358-6.367-1.812-7.075-5.033l-.78-4.698h-.33zm41.783 0l-1.105 4.697c-.707 2.863-3.14 5.033-5.97 5.033h-.773l-4.863-.783-3.537 3.244-.774.67 6.48 13.106 6.412-11.073 12.71 1.79-8.58-16.68z"/>
</svg>
